<?xml version="1.0" standalone="no"?>
<!DOCTYPE svg PUBLIC "-//W3C//DTD SVG 20010904//EN"
 "http://www.w3.org/TR/2001/REC-SVG-20010904/DTD/svg10.dtd">
<svg version="1.0" xmlns="http://www.w3.org/2000/svg"
 width="512.000000pt" height="512.000000pt" viewBox="0 0 512.000000 512.000000"
 preserveAspectRatio="xMidYMid meet">
<metadata>
Created by potrace 1.14, written by Peter Selinger 2001-2017
</metadata>
<g transform="translate(0.000000,512.000000) scale(0.100000,-0.100000)"
fill="#000000" stroke="none">
<path d="M3026 4349 c3 -5 10 -6 16 -3 7 4 8 2 4 -4 -4 -6 -14 -8 -23 -5 -12
5 -14 3 -8 -8 8 -12 6 -12 -8 0 -13 10 -17 10 -17 1 0 -7 -6 -10 -13 -7 -7 3
-21 -1 -32 -9 -10 -8 -15 -14 -9 -15 5 0 -2 -4 -14 -10 -13 -5 -26 -18 -29
-29 -3 -11 -9 -17 -14 -14 -5 3 -9 -2 -9 -11 0 -10 -5 -13 -12 -9 -8 5 -9 2
-5 -11 5 -11 1 -23 -10 -32 -10 -8 -13 -12 -6 -9 17 9 10 -20 -13 -45 -10 -12
-13 -19 -7 -15 9 5 11 2 7 -8 -3 -8 -12 -17 -20 -20 -8 -3 -11 -12 -7 -22 4
-10 2 -15 -4 -11 -5 3 -10 0 -10 -8 0 -8 3 -12 7 -10 3 2 6 -5 6 -15 0 -15 -3
-17 -15 -7 -12 10 -13 9 -2 -12 11 -19 11 -22 0 -16 -9 6 -10 3 -6 -9 6 -14 3
-17 -10 -12 -15 6 -16 5 -5 -5 14 -15 16 -33 3 -25 -5 3 -12 -1 -15 -10 -4
-10 -2 -13 7 -8 8 5 7 2 -2 -9 -7 -9 -10 -17 -5 -17 5 0 2 -5 -6 -10 -11 -7
-11 -10 -2 -10 7 0 10 -5 7 -10 -4 -6 -11 -7 -17 -4 -6 4 -5 -2 1 -15 9 -16 9
-21 0 -19 -6 2 -14 -3 -17 -11 -3 -9 0 -11 9 -7 8 4 3 -2 -11 -14 -14 -12 -20
-19 -14 -16 7 3 14 -3 17 -13 4 -15 1 -18 -12 -14 -9 4 -13 3 -9 -2 4 -4 1
-14 -7 -22 -8 -8 -13 -27 -11 -44 2 -21 0 -29 -9 -26 -6 3 -12 -1 -12 -9 0 -7
4 -11 8 -8 4 2 11 -1 15 -7 4 -8 3 -9 -4 -5 -7 4 -12 2 -12 -4 0 -6 -6 -8 -12
-4 -7 4 -10 4 -6 -1 4 -4 2 -15 -5 -23 -10 -13 -9 -14 3 -7 11 6 11 4 -2 -11
-12 -13 -14 -24 -7 -36 6 -11 6 -19 -1 -23 -6 -4 -8 -10 -5 -15 3 -4 -2 -11
-11 -14 -8 -3 -12 -10 -9 -16 3 -5 0 -10 -7 -10 -9 0 -9 -3 2 -10 10 -6 11
-10 3 -10 -7 0 -13 -9 -13 -19 0 -11 -9 -23 -21 -26 -14 -5 -18 -10 -10 -14
14 -9 7 -57 -8 -54 -5 2 -8 -4 -5 -12 4 -8 11 -12 17 -8 6 3 7 1 3 -6 -4 -6
-17 -9 -29 -6 -12 2 -16 2 -9 -1 6 -3 9 -11 6 -16 -4 -7 -2 -8 4 -4 8 5 10 2
6 -8 -3 -9 -10 -14 -14 -11 -5 3 -6 -5 -2 -17 4 -16 2 -19 -9 -13 -12 8 -12 6
0 -8 8 -10 11 -20 7 -24 -3 -3 -6 -1 -6 6 0 7 -5 9 -10 6 -7 -4 -6 -14 2 -28
10 -19 9 -20 -4 -9 -13 10 -15 7 -13 -23 1 -28 -2 -35 -13 -30 -12 4 -13 3 -2
-10 12 -15 3 -21 -24 -16 -5 1 -4 -5 4 -13 15 -19 24 -21 14 -4 -5 7 -3 8 5 4
13 -9 6 -21 -12 -21 -5 0 -12 -6 -15 -14 -3 -9 0 -11 8 -6 9 6 11 4 4 -6 -4
-8 -10 -21 -11 -30 -4 -24 -29 -69 -37 -64 -3 3 -2 0 3 -6 12 -14 2 -41 -11
-33 -6 4 -5 -3 1 -15 9 -17 9 -20 -2 -15 -18 6 -26 -13 -22 -54 2 -20 -1 -29
-8 -25 -7 4 -8 0 -4 -11 5 -14 3 -17 -8 -12 -20 7 -19 -4 3 -20 16 -13 16 -14
-1 -8 -13 5 -16 2 -11 -10 3 -9 1 -16 -5 -16 -6 0 -10 -3 -10 -7 5 -28 -3 -73
-11 -68 -5 3 -6 13 -3 23 3 9 3 14 -1 11 -4 -4 -9 -19 -12 -34 -3 -20 -1 -25
8 -19 10 6 10 4 0 -9 -8 -9 -10 -22 -6 -28 5 -8 2 -10 -8 -7 -8 4 -15 0 -15
-8 0 -7 4 -11 8 -8 4 2 11 -1 15 -7 4 -8 3 -9 -4 -5 -7 4 -12 3 -12 -3 0 -6
-6 -9 -12 -7 -7 1 -10 1 -5 -1 4 -3 7 -11 7 -19 0 -9 -5 -12 -10 -9 -7 4 -9
-3 -6 -19 3 -14 0 -26 -5 -26 -11 0 -7 -22 6 -33 6 -5 0 -6 -12 -2 -18 5 -20
2 -16 -15 3 -13 0 -20 -8 -20 -11 0 -11 -2 1 -10 9 -6 11 -10 3 -10 -7 0 -10
-7 -6 -17 4 -11 3 -14 -5 -9 -8 5 -12 -2 -12 -19 0 -14 -4 -24 -9 -21 -5 4 -7
-3 -4 -14 3 -13 0 -20 -8 -20 -11 0 -11 -2 1 -10 12 -7 12 -10 1 -10 -8 0 -11
-6 -7 -15 3 -9 -1 -18 -9 -21 -8 -3 -11 -12 -8 -21 5 -12 3 -14 -7 -8 -9 5
-11 4 -6 -4 12 -19 -4 -71 -22 -72 -11 0 -12 -3 -5 -6 10 -3 10 -10 2 -24 -5
-11 -7 -24 -4 -29 3 -6 2 -10 -4 -10 -6 0 -7 -8 -4 -17 5 -13 2 -15 -12 -10
-15 6 -16 5 -6 -7 9 -11 9 -15 0 -18 -7 -2 -14 -22 -16 -44 -5 -59 -6 -64 -11
-59 -3 3 -11 -7 -19 -22 -11 -21 -11 -28 -1 -35 10 -6 10 -8 -1 -8 -9 0 -11
-7 -8 -21 4 -15 2 -18 -7 -10 -13 11 -13 12 -18 -44 -2 -16 -11 -39 -20 -49
-10 -10 -15 -23 -12 -27 2 -4 0 -11 -6 -14 -8 -5 -7 -11 1 -21 9 -11 8 -14 -7
-14 -16 0 -17 -2 -4 -10 12 -8 12 -12 2 -18 -7 -5 -10 -16 -7 -24 4 -9 2 -19
-4 -23 -7 -4 -9 1 -5 12 5 15 4 16 -5 3 -6 -8 -8 -23 -5 -34 4 -13 2 -16 -6
-11 -9 6 -9 3 -1 -13 8 -15 8 -23 -1 -28 -7 -4 -8 -3 -4 4 15 25 -3 10 -20
-15 -15 -24 -15 -26 -1 -14 10 8 17 9 17 3 0 -6 -8 -16 -17 -21 -14 -8 -15
-10 -3 -11 11 0 12 -2 3 -8 -7 -4 -13 -23 -15 -41 -2 -27 -4 -30 -14 -16 -10
14 -12 13 -10 -9 0 -13 6 -21 11 -18 6 3 1 -5 -10 -18 -12 -14 -14 -20 -5 -15
12 7 13 6 3 -7 -7 -8 -9 -19 -5 -23 4 -5 -1 -5 -10 -2 -12 4 -15 2 -11 -8 3
-8 10 -12 16 -8 6 4 7 1 3 -6 -5 -7 -14 -10 -21 -7 -10 3 -12 -2 -9 -20 3 -15
0 -24 -8 -24 -8 0 -9 -3 -3 -8 15 -11 15 -41 0 -36 -7 3 -16 0 -21 -7 -4 -8
-3 -10 4 -5 19 11 14 -5 -5 -20 -17 -13 -17 -14 2 -8 20 6 20 5 1 -10 -15 -12
-16 -16 -5 -16 12 0 12 -2 -1 -10 -8 -5 -11 -10 -6 -10 5 0 3 -7 -4 -15 -10
-12 -10 -15 1 -15 11 0 11 -2 -1 -10 -10 -6 -11 -10 -2 -10 6 0 12 -7 12 -15
0 -8 -6 -15 -12 -15 -10 0 -10 -2 -1 -8 6 -4 13 -23 15 -42 2 -19 8 -35 15
-35 6 0 15 -4 20 -9 5 -5 3 -6 -4 -2 -17 10 -16 -2 1 -19 7 -8 17 -11 20 -7 4
3 4 -2 0 -13 -6 -15 -4 -17 11 -12 15 6 16 5 6 -7 -10 -12 -9 -13 9 -9 16 4
19 2 14 -11 -5 -12 -2 -15 12 -9 12 4 15 3 10 -5 -4 -8 -2 -10 7 -6 8 3 17 -2
21 -12 5 -14 9 -14 23 -3 15 12 16 12 11 -3 -7 -17 7 -19 31 -4 10 6 12 5 7
-2 -5 -8 1 -12 14 -12 13 0 18 4 15 11 -4 6 3 5 14 -3 18 -11 23 -11 30 1 7
11 9 11 14 0 4 -10 6 -10 6 -1 1 6 6 12 12 12 5 0 7 -6 3 -12 -4 -8 -3 -10 2
-5 5 5 10 13 10 18 1 5 2 12 3 15 0 4 8 1 16 -6 13 -11 14 -10 9 5 -5 12 -4
16 3 12 12 -8 74 48 65 58 -4 3 2 3 13 -1 11 -4 17 -4 13 1 -4 4 0 14 10 22
10 9 11 11 2 7 -12 -7 -13 -5 -3 8 7 8 9 19 5 23 -4 5 0 6 10 2 12 -4 15 0 13
19 -1 13 2 24 6 24 5 0 9 5 9 11 0 5 -6 7 -12 3 -9 -5 -9 -3 1 9 7 9 18 14 25
11 6 -3 3 1 -7 9 -16 14 -16 15 5 21 22 6 22 7 5 20 -16 12 -16 14 -2 20 11 4
14 2 9 -6 -4 -7 -3 -8 4 -4 9 5 9 13 1 28 -7 13 -7 18 -1 14 6 -3 13 -2 16 3
3 5 -1 11 -9 15 -8 3 -15 11 -14 18 0 10 2 10 6 1 8 -20 23 -15 23 8 0 11 5
17 10 14 6 -3 10 -1 10 4 0 6 -6 11 -12 11 -9 0 -8 3 2 10 8 5 11 12 7 16 -4
4 2 14 14 22 19 13 19 15 4 32 -16 18 -16 18 7 14 12 -2 17 -1 10 2 -10 5 -10
9 0 22 10 12 10 14 1 8 -9 -5 -11 -2 -7 8 3 9 11 13 17 9 6 -4 7 -1 1 8 -11
19 -14 40 -4 34 4 -3 10 5 13 16 4 13 10 18 18 13 8 -5 9 -3 3 7 -14 23 -14
41 1 35 10 -4 11 2 5 24 -5 16 -5 29 -2 29 4 -1 14 -1 22 0 13 1 13 2 0 11 -8
5 -10 10 -4 10 11 0 13 6 17 56 1 19 7 30 13 27 15 -5 28 14 15 21 -6 4 -6 18
-1 38 5 17 6 36 3 42 -4 6 1 5 10 -3 9 -7 17 -12 18 -10 7 34 6 38 -4 32 -8
-5 -8 -2 0 9 7 8 10 18 6 21 -3 4 -1 7 6 7 9 0 9 5 0 21 -8 16 -8 20 1 14 7
-4 13 1 17 14 3 12 10 18 17 14 6 -4 6 0 -2 9 -10 13 -10 17 4 22 15 6 15 8
-2 27 -16 18 -16 19 -1 13 12 -4 17 -1 17 11 0 10 -5 13 -12 9 -7 -4 -8 -3 -4
5 5 8 12 9 20 2 9 -7 12 -3 11 17 0 15 4 30 10 35 6 4 5 11 -5 17 -12 8 -12
10 -1 10 9 0 11 7 8 21 -4 16 -3 18 9 8 12 -9 14 -6 14 20 0 23 4 30 13 25 10
-6 10 -4 0 7 -16 17 -17 33 -1 23 8 -5 9 -2 5 9 -4 12 -1 17 10 17 13 0 14 3
5 12 -7 7 -12 17 -12 22 0 6 5 4 11 -4 9 -12 10 -11 6 8 -3 12 -1 22 5 22 5 0
6 5 3 10 -3 6 0 10 7 10 9 0 9 3 -2 10 -13 9 -8 14 12 12 11 -2 18 27 8 33 -6
4 -10 12 -10 18 0 7 4 6 11 -3 7 -11 9 -5 6 22 -3 21 -1 35 4 32 5 -3 6 -10 3
-16 -4 -7 -2 -8 4 -4 6 4 8 14 5 23 -5 12 -3 14 7 8 9 -5 11 -4 6 4 -4 6 -2
18 4 26 10 12 10 15 -1 15 -11 0 -11 2 1 10 8 5 11 10 5 10 -5 0 -3 5 5 10 10
6 11 10 3 10 -7 0 -13 5 -13 11 0 5 4 8 9 5 5 -3 15 2 22 11 8 9 9 14 3 10 -7
-4 -14 0 -17 7 -4 10 0 14 12 11 13 -2 17 3 16 23 -1 15 3 32 8 39 5 7 5 18 1
25 -6 10 -5 11 7 1 13 -10 14 -7 11 24 -3 26 -1 34 8 28 9 -6 9 -3 0 15 -11
20 -10 21 12 9 22 -12 23 -11 5 8 -17 19 -17 21 5 37 13 9 18 14 11 11 -6 -3
-14 -1 -18 5 -3 5 0 10 8 10 9 0 13 9 11 26 -2 19 1 24 12 20 9 -3 12 -1 9 4
-3 6 0 10 7 10 10 0 9 3 -1 9 -12 8 -12 12 -2 24 7 9 11 24 9 34 -2 11 2 17
11 15 12 -3 12 -1 0 14 -9 12 -9 15 -1 10 8 -5 12 0 12 13 0 12 6 21 13 21 8
0 7 4 -3 10 -13 9 -7 14 12 11 4 0 5 6 1 15 -3 9 0 20 8 25 10 6 10 9 2 9 -7
0 -13 5 -13 11 0 5 5 7 10 4 10 -6 14 7 11 34 -2 7 2 10 7 7 12 -7 10 13 -2
33 -6 10 -5 12 2 7 7 -4 12 -1 12 9 0 9 4 14 9 10 5 -3 13 0 17 6 4 7 3 9 -4
5 -6 -3 -13 -2 -17 4 -3 5 0 10 8 10 8 0 13 9 12 23 -1 12 6 28 17 35 15 11
16 17 6 35 -10 19 -9 20 4 10 12 -11 14 -9 13 7 -1 11 -4 23 -8 26 -3 4 -2 14
2 23 5 9 11 21 13 26 1 6 6 9 10 8 3 -1 9 4 12 12 3 8 0 15 -7 15 -7 0 -3 7 7
15 15 11 16 15 5 16 -8 0 -6 4 6 9 11 5 14 9 8 9 -17 1 -17 21 0 21 9 0 13 11
12 30 -1 16 2 27 8 23 5 -3 6 3 2 16 -5 15 -2 21 10 21 9 0 13 5 10 10 -4 6
-11 7 -17 4 -6 -4 -6 2 1 15 14 25 23 28 14 4 -4 -11 -3 -14 5 -9 7 4 10 17 6
33 -5 20 -4 24 6 18 8 -5 11 -4 6 3 -3 6 -2 14 4 17 8 5 7 11 -1 21 -9 11 -8
14 7 14 16 0 17 2 4 11 -12 9 -10 10 8 6 23 -5 23 -5 7 13 -15 17 -15 19 2 29
13 7 14 10 4 11 -11 0 -9 4 5 15 16 13 16 14 2 9 -10 -3 -18 -1 -18 5 0 6 9
11 20 11 22 0 27 15 8 23 -7 3 -4 6 7 6 17 1 17 3 5 11 -10 6 -11 10 -2 10 6
0 12 5 12 11 0 6 -6 7 -12 2 -7 -4 -5 5 5 20 10 15 15 33 11 39 -4 6 -3 8 4 4
6 -3 13 -2 17 4 3 5 0 10 -7 10 -10 0 -10 2 1 9 8 5 11 16 8 24 -3 9 1 18 9
21 8 3 14 11 14 17 0 8 -5 7 -17 -2 -15 -13 -15 -12 -3 8 8 12 18 19 22 17 8
-5 10 2 11 49 1 15 5 27 9 27 5 0 4 9 -2 19 -13 25 -13 31 1 31 5 0 8 -4 4 -9
-3 -5 -2 -12 3 -15 4 -2 8 13 7 34 0 21 -3 36 -7 33 -5 -2 -9 1 -9 6 -3 21 -4
26 -13 40 -6 9 -5 12 1 8 5 -3 10 0 10 8 0 8 -2 13 -5 10 -8 -8 -33 25 -27 35
3 5 -1 10 -9 10 -9 0 -16 5 -16 11 0 5 -4 7 -10 4 -5 -3 -10 -2 -10 4 0 5 6
12 13 15 6 4 2 4 -10 2 -13 -2 -23 1 -23 7 0 18 -48 38 -54 23 -3 -7 -5 -6 -5
2 -1 7 -5 10 -11 7 -5 -3 -10 -2 -10 4 0 5 6 12 13 15 6 3 0 3 -15 1 -15 -2
-33 -7 -39 -11 -7 -4 -9 -3 -6 3 4 6 0 14 -9 17 -8 3 -13 2 -10 -3 3 -5 -1
-12 -10 -15 -8 -3 -12 -2 -9 4 3 6 3 10 -2 11 -4 0 -16 2 -26 4 -9 2 -15 -1
-11 -6z m29 -1170 c-4 -5 -12 -9 -18 -8 -9 0 -8 2 1 6 6 2 9 10 6 15 -4 7 -2
8 5 4 6 -4 9 -12 6 -17z m-645 -333 c0 -3 -4 -8 -10 -11 -5 -3 -10 -1 -10 4 0
6 5 11 10 11 6 0 10 -2 10 -4z m-160 -520 c0 -3 -4 -8 -10 -11 -5 -3 -10 -1
-10 4 0 6 5 11 10 11 6 0 10 -2 10 -4z m-228 -643 c-6 -2 -9 -10 -6 -15 4 -7
2 -8 -5 -4 -13 9 -5 26 12 25 9 0 8 -2 -1 -6z m388 -447 c0 -3 -4 -8 -10 -11
-5 -3 -10 -1 -10 4 0 6 5 11 10 11 6 0 10 -2 10 -4z"/>
<path d="M2820 4149 c0 -5 5 -7 10 -4 6 3 10 8 10 11 0 2 -4 4 -10 4 -5 0 -10
-5 -10 -11z"/>
<path d="M1254 3575 c-4 -8 -10 -15 -16 -15 -5 0 -6 6 -2 13 5 8 3 8 -9 -2 -9
-7 -28 -11 -42 -9 -17 4 -25 1 -25 -8 0 -8 7 -11 18 -8 15 5 15 4 -1 -6 -10
-7 -21 -9 -24 -7 -3 3 -20 -10 -38 -30 -21 -23 -37 -33 -45 -28 -8 5 -11 4 -7
-2 4 -6 -2 -22 -14 -34 -11 -13 -17 -18 -13 -10 5 10 3 12 -5 7 -7 -5 -10 -14
-7 -22 3 -9 0 -11 -11 -7 -11 4 -14 2 -9 -5 4 -7 1 -12 -9 -12 -9 0 -19 -9
-22 -20 -3 -11 -12 -20 -19 -20 -8 0 -18 -8 -21 -17 -12 -32 -38 -60 -55 -57
-11 1 -15 -4 -13 -17 2 -10 -1 -22 -7 -25 -7 -4 -8 -2 -4 4 4 7 1 12 -9 12 -9
0 -14 -4 -11 -9 3 -4 -1 -17 -9 -27 -15 -18 -15 -18 -9 1 7 20 7 20 -9 0 -8
-11 -13 -23 -11 -26 2 -4 -4 -13 -13 -20 -10 -8 -14 -9 -10 -2 4 6 2 15 -5 19
-7 4 -10 4 -6 -1 4 -4 -3 -20 -15 -35 -12 -15 -28 -36 -35 -46 -7 -11 -10 -13
-6 -5 5 9 3 12 -4 7 -7 -4 -12 -14 -12 -21 0 -17 -34 -38 -44 -27 -4 3 -4 -1
0 -11 4 -11 1 -17 -9 -17 -8 0 -21 -8 -28 -17 -13 -17 -13 -17 6 -3 19 14 19
14 6 -3 -8 -10 -20 -16 -28 -13 -8 3 -12 2 -9 -3 3 -4 -2 -17 -10 -27 -9 -10
-13 -12 -9 -4 4 10 2 9 -8 -2 -8 -10 -18 -14 -23 -10 -4 4 -2 -2 6 -12 8 -11
10 -17 4 -13 -10 6 -36 -17 -42 -38 -2 -5 -10 -9 -18 -7 -12 3 -18 -9 -15 -30
0 -4 -8 -5 -20 -3 -14 3 -19 -1 -17 -13 2 -11 -3 -17 -14 -16 -10 1 -17 -1
-16 -5 3 -15 -15 -41 -29 -41 -8 0 -11 -5 -7 -12 5 -7 2 -9 -9 -5 -11 4 -15 1
-12 -13 2 -12 -1 -17 -10 -14 -7 3 -16 0 -21 -7 -5 -8 -3 -10 7 -4 12 8 12 6
1 -8 -8 -9 -17 -16 -20 -15 -19 2 -23 -4 -12 -17 8 -10 9 -15 2 -15 -6 0 -9
-7 -6 -15 4 -8 2 -15 -4 -15 -6 0 -13 6 -15 13 -3 6 -4 -5 -3 -25 1 -20 -1
-35 -6 -32 -4 3 -8 0 -8 -5 0 -6 5 -11 10 -11 6 0 10 -5 10 -11 0 -5 -6 -7
-12 -3 -9 5 -9 2 1 -9 9 -11 10 -17 2 -17 -6 0 -11 -5 -11 -11 0 -5 5 -7 10
-4 13 8 13 -1 -2 -28 -10 -19 -9 -21 4 -9 13 10 18 10 24 1 4 -8 3 -9 -4 -5
-7 4 -12 1 -12 -9 0 -9 4 -13 10 -10 5 3 11 -1 11 -9 1 -9 3 -20 4 -26 1 -5 3
-14 4 -20 0 -5 6 -10 12 -10 8 0 7 6 -2 18 -13 15 -12 16 3 4 10 -8 16 -17 15
-20 -1 -4 1 -7 5 -7 13 0 40 -44 33 -54 -3 -5 0 -13 6 -17 8 -4 9 -3 5 4 -4 7
-4 12 -1 12 8 0 35 -27 35 -35 0 -3 10 -16 21 -28 12 -12 18 -16 14 -8 -6 10
-4 12 4 7 7 -5 10 -15 6 -23 -4 -13 -3 -14 10 -3 13 11 14 10 8 -5 -5 -15 -3
-17 11 -12 10 4 15 3 11 -3 -3 -6 -1 -10 4 -10 6 0 11 -7 11 -16 0 -8 4 -13 9
-9 5 3 12 -4 16 -15 3 -11 12 -20 20 -20 7 0 15 -7 19 -15 3 -9 12 -12 23 -8
17 7 17 6 0 -11 -23 -24 -22 -29 5 -15 18 10 20 9 15 -5 -5 -11 3 -22 23 -35
17 -10 27 -21 22 -26 -4 -4 1 -5 10 -2 12 4 15 2 11 -9 -4 -10 0 -12 11 -8 11
4 16 2 14 -7 -2 -8 3 -13 11 -11 12 3 12 0 2 -12 -11 -13 -10 -15 7 -11 16 3
20 -1 17 -17 -4 -17 -2 -18 12 -6 12 9 15 9 9 0 -4 -7 -1 -15 8 -18 9 -3 16
-13 16 -21 0 -9 6 -13 15 -9 10 3 17 -3 21 -19 3 -14 10 -23 14 -20 5 3 11 -4
15 -15 3 -11 11 -20 16 -20 6 0 7 -6 3 -12 -5 -8 -2 -8 10 1 15 12 17 12 14 0
-2 -8 3 -13 10 -11 10 2 10 -2 2 -19 -11 -19 -10 -20 10 -9 18 10 21 9 18 -1
-6 -18 19 -42 34 -33 8 5 9 2 5 -9 -3 -10 -2 -17 3 -17 5 0 7 -8 3 -17 -5 -15
-3 -14 11 2 11 14 15 15 14 5 -2 -8 3 -14 10 -12 6 1 12 -6 12 -16 0 -25 35
-56 52 -46 9 6 9 3 -1 -10 -8 -9 -10 -16 -5 -15 5 2 20 -1 34 -5 24 -8 24 -9
5 -17 -19 -7 -19 -8 3 -10 12 -1 28 -2 35 -3 6 -1 11 -9 11 -18 -1 -11 4 -14
14 -11 11 5 13 2 7 -6 -6 -10 -3 -11 11 -3 24 12 45 5 38 -13 -3 -7 0 -16 7
-21 8 -4 10 -3 5 5 -4 6 0 19 10 28 16 16 16 16 10 -3 -4 -14 -2 -21 8 -21 9
0 13 4 11 8 -3 4 2 9 10 13 8 3 19 -3 24 -12 10 -16 10 -16 11 0 0 11 5 15 15
12 8 -4 22 -1 29 5 8 7 22 11 32 9 11 -2 23 6 30 20 8 17 13 20 17 10 4 -10 6
-10 6 0 1 7 5 10 11 7 5 -3 7 0 4 8 -3 8 0 18 5 22 6 3 8 12 4 18 -4 7 2 5 12
-3 11 -9 16 -10 11 -2 -4 7 -2 12 4 12 6 0 8 5 5 10 -3 6 0 10 7 10 10 0 10 2
-1 9 -11 7 -10 15 10 42 12 18 18 29 11 25 -8 -5 -10 -2 -6 8 3 9 9 14 14 11
4 -2 5 7 2 20 -2 14 2 33 9 43 11 14 11 15 -1 5 -21 -19 -35 -16 -19 4 10 11
10 14 2 9 -7 -4 -13 -3 -13 1 0 5 6 15 13 22 10 11 8 12 -9 7 -14 -4 -21 -2
-21 8 0 9 3 13 7 11 4 -2 7 2 7 10 0 8 -5 13 -11 12 -6 -1 -10 6 -10 15 1 11
-4 14 -14 11 -8 -4 -13 -2 -10 3 8 12 -17 35 -28 26 -5 -4 -2 1 5 11 12 15 12
17 -4 11 -14 -6 -16 -4 -10 6 6 10 4 12 -8 7 -10 -4 -18 1 -22 14 -4 10 -11
19 -16 19 -6 0 -7 4 -4 10 3 5 -1 10 -10 10 -9 0 -13 5 -10 10 3 6 1 10 -5 10
-17 0 -40 26 -41 47 0 16 -1 16 -9 -2 -8 -19 -9 -19 -9 2 -1 23 -38 56 -53 47
-4 -3 -5 3 -1 12 5 14 3 16 -12 10 -11 -4 -17 -4 -13 -1 3 4 -10 22 -30 42
-21 20 -28 29 -17 22 19 -13 19 -13 6 4 -8 10 -20 16 -28 13 -8 -3 -12 -2 -9
3 3 5 -6 17 -19 27 -14 10 -25 24 -25 30 0 6 -8 18 -17 25 -17 13 -17 12 -4
-6 8 -11 2 -8 -13 8 -15 15 -31 27 -36 27 -5 0 -6 7 -3 17 5 12 3 14 -7 8 -10
-6 -12 -4 -7 9 4 9 3 15 -2 12 -11 -7 -51 27 -51 44 0 7 -7 10 -17 6 -10 -4
-14 -4 -11 -1 9 9 -35 54 -45 47 -5 -2 -4 5 2 16 14 27 14 35 -1 26 -7 -3 1 7
17 24 17 16 35 27 40 24 6 -3 4 2 -3 11 -12 14 -11 16 6 12 13 -2 24 5 32 20
7 14 17 22 22 19 4 -3 8 1 8 9 0 8 8 21 17 28 15 12 16 12 8 -1 -8 -13 -7 -13
8 -1 10 8 15 16 13 18 -8 9 47 63 57 56 6 -3 7 -1 3 5 -4 7 -2 12 4 12 6 0 8
5 4 12 -5 8 -2 9 10 5 10 -4 15 -3 11 3 -3 6 1 10 9 10 9 0 16 7 16 16 0 8 5
12 10 9 6 -3 10 1 10 10 0 10 5 13 12 9 8 -5 9 -2 4 11 -6 16 -4 16 11 4 9 -8
14 -9 10 -2 -4 6 -4 19 -1 28 5 13 8 14 15 3 7 -10 9 -9 9 5 0 9 11 23 25 29
19 8 22 14 13 20 -11 6 -10 8 0 8 8 0 10 5 6 13 -5 7 0 6 11 -3 11 -9 16 -10
11 -2 -4 7 -2 12 4 12 6 0 8 5 4 13 -5 7 0 6 11 -3 13 -10 16 -11 11 -2 -9 15
20 52 41 52 8 0 11 5 8 10 -3 6 -1 10 5 10 6 0 8 5 4 12 -5 8 -2 9 10 5 10 -4
15 -3 11 3 -3 6 -1 10 5 10 6 0 8 5 5 10 -3 6 0 10 8 10 8 0 22 10 33 22 19
22 19 23 -1 8 -19 -14 -19 -14 -6 3 8 10 20 16 27 13 7 -3 16 -1 19 5 4 5 3 8
-2 7 -4 -2 -8 2 -8 7 0 6 4 9 8 7 4 -1 3 7 -4 19 -10 19 -9 21 6 15 15 -5 16
-4 5 9 -11 13 -10 14 3 9 16 -6 18 19 2 33 -4 4 -5 2 0 -6 5 -10 4 -12 -4 -7
-17 11 -4 26 17 20 14 -5 14 -3 -2 10 -11 9 -14 16 -8 16 7 0 12 8 12 18 0 14
-2 14 -9 3 -7 -10 -9 -8 -9 10 1 42 -6 79 -14 79 -4 0 -7 6 -5 13 1 6 -5 12
-14 11 -9 -1 -16 5 -16 12 0 7 5 10 10 7 6 -3 7 -1 3 5 -4 7 -13 12 -21 12 -7
0 -17 9 -20 20 -3 11 -15 20 -26 20 -17 0 -24 11 -20 34 1 5 -4 4 -13 -3 -10
-8 -16 -9 -21 -1 -4 7 -13 6 -28 -2 -21 -11 -21 -10 -7 7 10 12 10 16 2 11 -7
-4 -20 -2 -28 5 -12 10 -13 9 -8 -7 5 -18 5 -18 -10 0 -9 11 -16 14 -16 8 0
-7 -5 -12 -11 -12 -5 0 -7 5 -4 10 3 6 4 10 0 10 -3 0 -8 -7 -11 -15z m-484
-429 c0 -2 -7 -7 -16 -10 -8 -3 -12 -2 -9 4 6 10 25 14 25 6z m525 -1006 c3
-6 -1 -7 -9 -4 -18 7 -21 14 -7 14 6 0 13 -4 16 -10z m-225 -490 c0 -5 -2 -10
-4 -10 -3 0 -8 5 -11 10 -3 6 -1 10 4 10 6 0 11 -4 11 -10z"/>
<path d="M3811 3575 c-1 -17 -3 -18 -11 -5 -8 12 -10 12 -10 1 0 -8 -3 -11 -7
-8 -3 4 -12 2 -20 -4 -7 -6 -22 -9 -34 -6 -16 4 -18 3 -8 -9 9 -11 8 -14 -7
-15 -11 -1 -23 -1 -27 0 -5 1 -5 -4 -1 -10 5 -9 2 -10 -11 -5 -14 5 -16 4 -6
-8 9 -11 7 -15 -10 -19 -12 -3 -18 -10 -14 -17 4 -7 -2 -14 -14 -17 -12 -3
-21 -10 -21 -15 0 -5 6 -6 13 -2 8 5 7 2 -2 -9 -8 -10 -11 -20 -8 -24 4 -3 -1
-12 -11 -20 -10 -9 -11 -11 -2 -7 13 7 13 5 1 -9 -7 -9 -9 -17 -3 -17 5 0 9
-11 8 -24 0 -13 -4 -22 -8 -19 -5 2 -8 -1 -8 -6 0 -6 5 -11 10 -11 6 0 10 -5
10 -11 0 -5 -4 -8 -8 -5 -5 3 -9 -1 -9 -9 0 -8 4 -12 8 -10 6 4 15 -29 21 -72
1 -7 4 -12 7 -11 24 2 32 -4 27 -19 -4 -10 -4 -14 0 -11 8 9 34 -16 34 -32 0
-7 7 -9 17 -6 10 4 14 4 11 0 -9 -8 14 -33 25 -27 4 2 6 -1 5 -9 -2 -7 3 -12
10 -10 6 1 11 -1 11 -5 -3 -20 2 -34 11 -28 6 3 10 1 10 -5 0 -6 5 -8 13 -4 8
6 8 3 -1 -9 -12 -14 -11 -16 7 -12 12 2 19 0 16 -4 -8 -14 36 -63 51 -57 9 4
14 -2 14 -15 0 -11 4 -18 9 -15 5 3 12 -1 15 -10 3 -8 10 -12 16 -9 6 4 7 -1
3 -11 -4 -12 -3 -15 5 -10 7 4 12 1 12 -7 0 -19 27 -30 34 -14 3 7 3 0 1 -16
-2 -15 0 -25 5 -22 15 9 60 -25 60 -46 0 -10 5 -21 12 -25 7 -5 8 -3 3 6 -5 9
-4 11 3 6 7 -4 12 -14 12 -22 0 -8 7 -14 16 -14 8 0 12 -4 9 -10 -3 -6 4 -10
17 -10 18 0 20 -2 8 -10 -13 -9 -13 -10 0 -11 8 -1 19 0 25 1 5 1 7 -2 3 -6
-4 -4 0 -13 10 -21 16 -12 16 -13 -3 -7 -18 5 -18 4 -2 -6 9 -6 23 -8 30 -4 6
4 9 4 5 -1 -7 -8 28 -45 42 -45 16 0 2 -54 -18 -71 -13 -10 -22 -21 -22 -24 1
-4 -2 -10 -6 -13 -4 -4 -4 -1 0 6 4 6 2 12 -3 12 -6 0 -11 -6 -11 -14 0 -8 -5
-18 -12 -22 -7 -5 -9 -2 -4 7 4 8 1 5 -8 -5 -8 -10 -12 -24 -9 -30 4 -6 -2 -4
-12 4 -11 9 -16 10 -11 3 11 -19 -3 -36 -18 -24 -8 7 -12 4 -13 -10 -1 -12 3
-17 9 -13 7 4 8 2 4 -4 -4 -6 -13 -9 -22 -5 -9 3 -14 0 -12 -8 2 -8 -5 -13
-15 -13 -14 2 -15 -1 -6 -12 8 -10 7 -12 -10 -9 -14 3 -18 -1 -14 -11 3 -9 -5
-18 -26 -25 -17 -6 -31 -16 -31 -22 0 -7 4 -7 12 1 7 7 17 12 22 12 6 0 -1 -8
-17 -18 -15 -10 -24 -22 -20 -26 4 -4 0 -4 -8 -1 -9 3 -22 -1 -29 -9 -7 -9
-17 -13 -23 -9 -6 4 -7 1 -2 -6 5 -9 10 -10 18 -2 6 6 16 11 21 11 6 0 -1 -8
-14 -17 -14 -10 -28 -17 -32 -15 -7 2 -12 -13 -9 -30 0 -4 -5 -5 -13 -2 -8 3
-17 0 -22 -7 -5 -8 -3 -10 6 -4 9 6 11 4 6 -4 -5 -7 -15 -10 -23 -6 -12 4 -13
2 -5 -8 9 -11 6 -17 -13 -27 -13 -7 -22 -17 -19 -21 3 -5 -1 -7 -8 -4 -7 2
-29 -10 -48 -26 -26 -24 -29 -28 -10 -18 14 7 31 19 38 28 11 14 12 13 3 -4
-5 -12 -21 -27 -35 -34 -14 -8 -23 -18 -20 -22 2 -4 -1 -11 -7 -15 -8 -4 -9
-3 -5 4 4 7 2 12 -3 12 -6 0 -11 -6 -11 -14 0 -8 -5 -18 -12 -22 -7 -5 -8 -3
-3 6 5 9 4 11 -3 6 -7 -4 -12 -13 -12 -21 0 -8 -5 -17 -12 -21 -7 -5 -8 -3 -3
6 5 9 4 11 -4 6 -9 -6 -9 -11 1 -24 10 -12 10 -14 0 -8 -7 4 -15 1 -18 -8 -3
-9 -11 -13 -16 -10 -6 4 -4 -4 3 -17 11 -22 11 -23 -4 -11 -13 11 -15 10 -10
-7 3 -14 1 -21 -8 -21 -11 0 -11 -2 1 -10 8 -5 10 -10 3 -10 -12 0 -12 -17 0
-37 6 -9 3 -11 -8 -7 -11 5 -14 2 -9 -10 3 -9 10 -14 14 -11 5 3 11 1 14 -4 7
-10 -13 -9 -30 1 -6 4 -11 1 -11 -7 0 -8 3 -14 6 -13 19 2 27 -4 28 -22 1 -12
-3 -18 -8 -14 -6 3 -5 -3 2 -14 7 -12 18 -18 24 -14 5 3 4 -2 -4 -11 -12 -15
-11 -17 3 -17 10 0 14 -4 11 -10 -3 -5 -1 -10 5 -10 6 0 8 -4 5 -10 -3 -6 1
-7 10 -4 11 5 14 2 8 -12 -5 -13 -3 -16 10 -11 12 4 14 2 10 -10 -4 -11 -2
-14 5 -9 6 4 19 -1 29 -11 10 -10 27 -18 38 -18 14 0 19 -6 18 -20 -1 -11 0
-14 3 -7 6 13 54 17 54 4 0 -17 65 -7 72 11 9 22 28 22 29 0 0 -16 1 -16 7 -2
4 9 15 15 24 14 11 -2 15 2 11 12 -5 13 -1 15 21 11 19 -4 24 -2 17 5 -7 7 -4
14 12 22 12 6 21 17 19 24 -1 7 1 10 6 7 5 -3 18 2 28 10 10 9 12 13 4 9 -8
-4 -6 0 4 9 10 8 22 13 26 11 4 -3 7 3 6 12 0 10 5 18 12 18 15 0 33 25 26 36
-2 4 1 11 7 15 8 5 9 3 4 -6 -5 -8 -3 -11 6 -8 8 3 13 13 11 23 -2 9 1 15 5
12 12 -8 38 10 38 25 0 7 8 12 18 12 9 -1 15 2 12 6 -2 4 3 16 11 26 9 10 12
13 8 5 -5 -10 -3 -12 5 -7 7 5 10 14 7 22 -3 9 0 11 12 7 15 -6 15 -4 4 9 -11
14 -10 16 9 11 18 -5 21 -3 16 10 -4 11 -1 15 12 12 10 -2 18 2 17 8 0 7 3 13
7 14 16 2 66 56 61 64 -6 10 37 40 48 33 4 -3 5 3 1 12 -5 14 -3 16 12 11 16
-7 16 -5 4 10 -7 10 -10 15 -5 11 9 -8 36 13 30 24 -2 4 1 10 7 14 8 5 9 3 4
-6 -5 -8 -3 -11 6 -8 8 3 14 11 14 19 0 8 8 13 18 13 9 -1 15 2 12 6 -2 4 3
16 11 26 9 10 13 12 9 4 -4 -9 0 -7 9 3 8 11 12 26 9 35 -3 12 -2 13 4 5 10
-15 38 0 29 15 -4 7 1 10 12 7 13 -2 19 2 18 13 0 9 5 17 12 17 15 0 33 25 26
36 -2 4 1 11 7 15 8 4 9 3 5 -4 -4 -7 -2 -12 3 -12 6 0 11 7 11 15 0 8 8 15
18 16 11 0 12 2 4 6 -9 3 -3 12 17 27 17 13 27 27 23 31 -4 5 1 5 10 2 10 -3
20 -1 24 5 4 7 3 8 -4 4 -7 -4 -12 -2 -12 3 0 6 7 11 16 11 14 0 14 2 3 16
-11 14 -10 20 14 39 17 15 22 25 14 28 -8 4 -9 6 0 6 6 1 9 10 5 23 -4 16 -2
19 9 13 11 -7 12 -6 3 6 -7 8 -11 38 -10 67 1 44 -1 50 -11 35 -12 -15 -13
-15 -13 6 0 14 -4 20 -12 15 -7 -5 -8 -3 -3 5 4 8 -4 24 -20 41 -17 18 -25 35
-21 45 3 10 2 14 -5 10 -12 -8 -40 26 -32 39 4 5 1 6 -6 2 -9 -6 -9 -11 0 -22
10 -12 9 -13 -5 -8 -11 4 -16 14 -13 25 3 11 0 16 -8 13 -7 -3 -15 2 -19 11
-3 9 -11 13 -17 9 -7 -4 -6 2 2 17 11 22 11 23 -4 10 -15 -12 -17 -11 -17 10
0 19 -2 21 -10 9 -7 -11 -10 -11 -10 -2 0 8 -5 10 -12 6 -8 -5 -8 -2 1 10 8 9
10 16 5 15 -21 -4 -35 2 -29 11 3 6 -2 10 -12 10 -15 0 -16 2 -3 10 12 8 10
10 -8 10 -13 0 -20 4 -17 10 3 6 0 10 -7 10 -7 0 -19 13 -26 30 -8 16 -17 29
-20 29 -22 -3 -33 3 -29 15 4 10 1 13 -9 9 -10 -3 -14 2 -14 18 0 19 -2 21
-10 9 -8 -13 -10 -12 -10 3 0 10 -4 16 -9 13 -5 -3 -12 1 -15 10 -3 9 -11 12
-18 8 -8 -5 -7 0 2 11 8 10 10 16 3 12 -14 -9 -43 2 -43 15 0 6 5 7 13 2 7 -5
5 -2 -5 7 -9 9 -14 20 -10 25 4 5 -2 2 -12 -6 -13 -10 -17 -10 -12 -2 4 6 2
12 -3 12 -6 0 -11 7 -11 15 0 10 -6 12 -17 8 -16 -6 -17 -5 -3 13 8 10 10 16
6 12 -5 -5 -15 1 -23 12 -8 11 -21 20 -29 20 -8 0 -14 5 -14 11 0 5 -6 7 -12
3 -8 -5 -7 0 2 11 14 17 13 18 -4 12 -14 -6 -17 -4 -12 9 6 15 4 15 -11 3 -11
-9 -14 -10 -9 -2 4 7 0 23 -8 35 -9 12 -16 18 -16 12 0 -5 5 -15 12 -22 9 -9
9 -12 0 -12 -6 0 -14 11 -18 25 -3 14 -10 23 -14 20 -4 -3 -11 2 -14 11 -3 8
-11 12 -17 8 -7 -4 -6 2 2 17 11 22 11 23 -4 10 -15 -11 -17 -11 -17 2 0 8 -8
21 -17 28 -17 13 -17 13 -3 -6 14 -19 14 -19 -2 -6 -10 7 -18 18 -18 23 0 5
-7 16 -15 24 -8 9 -15 13 -15 9 0 -3 -6 0 -14 7 -8 7 -11 17 -8 22 3 5 -4 7
-16 4 -16 -5 -19 -2 -14 11 5 14 3 14 -10 3 -13 -10 -18 -10 -24 -1 -4 8 -3 9
4 5 7 -4 12 -2 12 3 0 6 -7 11 -15 11 -8 0 -15 6 -16 13 0 6 -4 3 -9 -8 -5
-11 -9 -14 -9 -6 -1 9 -9 12 -26 9 -19 -4 -23 -2 -15 7 8 9 4 12 -16 9 -15 -1
-30 -8 -34 -15 -6 -8 -9 -6 -13 7 -4 18 -5 18 -6 -1z m724 -575 c3 -6 -1 -7
-9 -4 -18 7 -21 14 -7 14 6 0 13 -4 16 -10z m-660 -42 c5 4 5 1 1 -6 -6 -10
-11 -10 -22 -1 -8 6 -14 14 -14 16 0 3 6 0 13 -6 8 -6 18 -7 22 -3z m525 -993
c-7 -8 -16 -15 -21 -15 -5 0 -1 8 9 18 20 22 31 19 12 -3z m-510 -429 c0 -3
-4 -8 -10 -11 -5 -3 -10 -1 -10 4 0 6 5 11 10 11 6 0 10 -2 10 -4z"/>
<path d="M2607 3516 c-10 -8 -14 -16 -10 -19 5 -3 14 3 21 14 14 22 13 23 -11
5z"/>
<path d="M1083 3495 c0 -8 4 -12 9 -9 5 3 6 10 3 15 -9 13 -12 11 -12 -6z"/>
<path d="M3580 3330 c-8 -5 -12 -12 -9 -15 4 -3 12 1 19 10 14 17 11 19 -10 5z"/>
<path d="M900 3310 c-8 -5 -12 -12 -9 -15 4 -3 12 1 19 10 14 17 11 19 -10 5z"/>
<path d="M3083 3285 c0 -8 4 -12 9 -9 5 3 6 10 3 15 -9 13 -12 11 -12 -6z"/>
<path d="M4012 2784 c10 -10 20 -16 22 -13 3 3 -5 11 -17 18 -21 13 -21 12 -5
-5z"/>
<path d="M4800 2736 c0 -2 8 -10 18 -17 15 -13 16 -12 3 4 -13 16 -21 21 -21
13z"/>
<path d="M4225 2530 c-4 -6 -11 -7 -17 -4 -7 4 -8 2 -4 -5 6 -9 11 -9 22 0 14
11 18 19 10 19 -3 0 -8 -5 -11 -10z"/>
<path d="M4850 2455 c-7 -9 -10 -18 -7 -22 4 -3 9 2 13 11 3 9 11 13 17 9 6
-3 7 -1 3 5 -9 15 -11 15 -26 -3z"/>
<path d="M330 2356 c0 -2 7 -7 16 -10 8 -3 12 -2 9 4 -6 10 -25 14 -25 6z"/>
<path d="M4785 2349 c-4 -6 -5 -12 -2 -15 2 -3 7 2 10 11 7 17 1 20 -8 4z"/>
<path d="M1215 2220 c3 -5 8 -10 11 -10 2 0 4 5 4 10 0 6 -5 10 -11 10 -5 0
-7 -4 -4 -10z"/>
<path d="M3810 2119 c0 -5 5 -7 10 -4 6 3 10 8 10 11 0 2 -4 4 -10 4 -5 0 -10
-5 -10 -11z"/>
<path d="M1530 1695 c-11 -13 -10 -14 4 -9 9 3 16 10 16 15 0 13 -6 11 -20 -6z"/>
</g>
</svg>
